# xmcd
#
# Track frame offsets: 
#        150
#        18322
#        39040
#        58857
#        74855
#        93705
#        117332
#        140195
#        163515
#
# Disc length: 2474 seconds
#
# Revision: 9
# Processed by: cddbd v1.5.2PL0 Copyright (c) Steve Scherf et al.
# Submitted via: ExactAudioCopy v0.99pb4
#
DISCID=8309a809
DTITLE=Talking Heads - Speaking In Tongues
DYEAR=1983
DGENRE=Synthpop
TTITLE0=Burning Down The House
TTITLE1=Making Flippy Floppy
TTITLE2=Girlfriend Is Better
TTITLE3=Slippery People
TTITLE4=I Get Wild/Wild Gravity
TTITLE5=Swamp
TTITLE6=Moon Rocks
TTITLE7=Pull Up The Roots
TTITLE8=This Must Be The Place (Naive Melody)
EXTD=1983 Sire Records\nAll music by D. Byrne, C. Frantz, J. Harrison,
EXTD=and \nT. Weymouth - lyrics by D. Byrne YEAR: 1983 ID3G: 13
EXTT0=
EXTT1=
EXTT2=
EXTT3=
EXTT4=
EXTT5=
EXTT6=
EXTT7=
EXTT8=
PLAYORDER=
